PathFileType   4   (X/Y/Z)
DataRate	CameraRate	NumFrames	NumMarkers	Units	OrigDataRate	OrigDataStartFrame	OrigNumFrames
120.0	120.0	6	37	mm	120.0	127	168
Frame#	Time	midhip	hip_r	hip_l	knee_r	knee_l	ankle_r	ankle_l	midasis	asis_r	asis_l	psis_r	psis_l	epicondLat_r	epicondLat_l	epicondMed_r	epicondMed_l	malleolusLat_r	malleolusLat_l	malleolusMedv_r	malleolusMedv_l	neck	subclavicle_r	subclavicle_l	sternalnotch	xyphoidprocess	thighwand_r	thighwand_l	upperleg1_r	upperleg1_l	upperleg2_r	upperleg2_l	shankwand_r	shankwand_l	lowerleg1_r	lowerleg1_l	toe_r	toe_l
 	 	X1	Y1	Z1	X2	Y2	Z2	X3	Y3	Z3	X4	Y4	Z4	X5	Y5	Z5	X6	Y6	Z6	X7	Y7	Z7	X8	Y8	Z8	X9	Y9	Z9	X10	Y10	Z10	X11	Y11	Z11	X12	Y12	Z12	X13	Y13	Z13	X14	Y14	Z14	X15	Y15	Z15	X16	Y16	Z16	X17	Y17	Z17	X18	Y18	Z18	X19	Y19	Z19	X20	Y20	Z20	X21	Y21	Z21	X22	Y22	Z22	X23	Y23	Z23	X24	Y24	Z24	X25	Y25	Z25	X26	Y26	Z26	X27	Y27	Z27	X28	Y28	Z28	X29	Y29	Z29	X30	Y30	Z30	X31	Y31	Z31	X32	Y32	Z32	X33	Y33	Z33	X34	Y34	Z34	X35	Y35	Z35	X36	Y36	Z36	X37	Y37	Z37

	127	1.33333	718.558	831.816	-217.983	705.900	806.043	-149.523	698.355	813.259	-301.292	706.314	441.745	-180.037	811.206	436.038	-354.211	686.385	64.457	-210.862	653.006	120.656	-344.802	793.046	882.975	-223.394	795.039	877.242	-104.618	791.054	888.707	-342.171	596.288	944.968	-187.383	592.969	939.732	-241.648	710.343	436.920	-122.378	822.212	447.166	-410.060	704.293	444.828	-226.864	841.727	441.935	-293.980	669.597	62.382	-174.615	636.536	127.852	-380.537	698.552	75.900	-242.584	668.038	126.974	-322.266	680.806	1386.602	-205.356	803.224	1316.264	-164.358	796.568	1313.070	-269.770	796.127	1311.745	-216.238	830.766	1239.515	-220.035	867.018	575.451	-184.868	832.963	594.982	-481.465	805.231	624.948	-123.674	760.101	615.775	-419.409	790.583	538.332	-127.633	794.986	535.385	-417.959	660.139	135.238	-97.680	792.693	191.802	-352.518	664.770	147.397	-139.760	754.166	209.390	-354.718	782.427	39.040	-177.846	735.165	65.245	-381.056
	128	1.34167	722.223	831.897	-217.764	709.345	805.806	-149.321	702.140	813.345	-301.091	708.358	441.590	-180.142	818.157	437.035	-353.299	686.597	64.367	-211.105	671.541	115.902	-344.882	796.727	882.808	-222.840	798.453	876.825	-104.053	795.000	888.790	-341.627	599.907	944.979	-187.323	596.685	939.778	-241.588	712.260	436.700	-122.481	829.504	448.269	-409.058	707.037	445.026	-226.986	848.516	444.231	-292.138	669.803	62.360	-174.857	654.399	122.799	-380.358	698.167	76.247	-243.023	686.527	122.224	-322.157	685.006	1386.752	-204.936	807.261	1316.135	-163.413	801.123	1313.092	-269.067	800.301	1311.607	-215.656	834.988	1239.429	-219.161	869.749	574.716	-184.569	839.861	596.026	-480.564	807.929	624.567	-123.026	766.180	616.518	-419.514	793.335	538.255	-127.342	802.122	536.213	-417.183	660.762	135.307	-98.071	808.578	191.999	-353.581	664.950	147.524	-139.685	769.198	207.857	-355.464	782.544	38.822	-177.882	755.141	64.223	-383.133
	129	1.35000	725.722	831.680	-217.847	712.855	805.563	-149.170	706.038	813.360	-300.945	710.367	441.428	-180.225	824.982	437.990	-352.333	686.764	64.353	-211.382	690.239	111.357	-344.965	800.481	882.618	-222.341	801.904	876.436	-103.536	799.059	888.801	-341.146	603.605	944.925	-187.260	600.419	939.781	-241.579	714.145	436.485	-122.559	836.567	449.286	-408.031	708.859	445.444	-227.242	855.825	445.473	-291.352	669.979	62.408	-175.127	672.450	117.901	-380.189	698.498	75.860	-243.414	705.460	117.614	-322.270	688.592	1386.934	-204.468	811.205	1316.156	-162.850	805.437	1312.866	-268.796	804.521	1311.453	-215.124	839.165	1239.336	-218.464	872.514	573.979	-184.284	846.399	596.913	-479.683	811.331	623.675	-122.713	772.154	616.968	-418.935	796.044	537.646	-127.333	808.959	537.048	-416.517	661.403	135.406	-98.543	824.496	192.386	-354.572	665.727	147.432	-140.252	784.366	206.688	-356.247	782.632	38.588	-177.897	775.170	63.367	-385.084
	130	1.35833	728.852	830.879	-218.057	716.434	805.316	-149.067	710.046	813.310	-300.850	712.341	441.260	-180.284	831.713	438.901	-351.294	686.896	64.413	-211.676	709.052	107.076	-345.064	804.306	882.418	-221.894	805.394	876.081	-103.063	803.219	888.754	-340.724	607.377	944.799	-187.183	604.181	939.735	-241.614	715.995	436.274	-122.615	843.415	450.204	-406.966	712.533	444.649	-228.472	862.413	446.129	-290.665	670.117	62.525	-175.414	690.670	113.214	-380.056	699.253	75.332	-243.637	724.430	113.376	-322.692	692.912	1386.727	-203.860	815.264	1316.050	-162.675	809.420	1312.760	-268.362	808.781	1311.265	-214.639	843.157	1239.219	-218.179	875.299	573.233	-184.003	852.550	597.628	-478.845	814.277	622.725	-122.787	777.658	617.378	-417.962	799.157	536.493	-127.856	815.124	537.614	-415.679	662.010	135.518	-99.060	840.410	192.971	-355.428	666.917	147.465	-140.872	800.231	205.921	-356.865	782.684	38.337	-177.903	795.236	62.685	-386.852
	131	1.36667	732.205	830.173	-218.375	720.083	805.065	-148.998	714.144	813.211	-300.791	714.285	441.090	-180.324	838.376	439.760	-350.170	687.030	64.525	-211.962	727.938	103.102	-345.187	808.188	882.217	-221.489	808.923	875.762	-102.632	807.452	888.672	-340.345	611.214	944.597	-187.093	607.975	939.641	-241.680	717.812	436.070	-122.650	850.065	451.011	-405.855	716.657	443.825	-229.687	867.819	446.634	-289.465	670.231	62.695	-175.706	709.040	108.786	-379.980	699.487	75.189	-243.939	743.664	109.262	-323.130	697.511	1386.405	-202.968	819.596	1315.772	-162.039	813.283	1312.510	-267.973	813.049	1311.030	-214.194	847.138	1238.914	-217.816	878.084	572.465	-183.715	858.305	598.158	-478.060	817.224	622.194	-122.937	782.801	617.391	-417.136	802.426	535.456	-128.404	820.571	537.939	-414.689	662.529	135.626	-99.588	856.272	193.771	-356.097	667.726	147.599	-141.293	816.138	205.538	-357.158	782.704	38.078	-177.905	815.325	62.189	-388.378
	132	1.37500	736.300	830.197	-218.832	723.792	804.811	-148.934	718.288	813.077	-300.737	716.200	440.929	-180.346	844.988	440.551	-348.964	687.226	64.658	-212.222	746.861	99.472	-345.323	812.103	882.022	-221.111	812.498	875.471	-102.240	811.708	888.573	-339.982	615.104	944.333	-186.996	611.806	939.500	-241.763	719.599	435.879	-122.666	856.535	451.693	-404.700	717.488	444.401	-229.231	873.327	447.153	-288.463	670.353	62.888	-175.998	727.537	104.662	-379.959	699.686	75.074	-244.211	763.577	105.481	-323.355	702.067	1386.001	-202.500	824.359	1315.343	-161.484	817.776	1312.085	-267.790	817.320	1310.737	-213.777	851.770	1238.491	-217.531	880.849	571.662	-183.418	863.668	598.500	-477.334	820.187	621.771	-122.796	787.670	617.034	-416.380	804.228	535.169	-128.028	825.675	538.419	-413.838	662.917	135.723	-100.099	872.025	194.800	-356.536	668.300	147.685	-141.730	831.282	204.819	-356.968	782.702	37.827	-177.907	835.418	61.893	-389.616
